<svg width="562" height="653" viewBox="0 0 562 653" fill="none" xmlns="http://www.w3.org/2000/svg">
<g clip-path="url(#clip0)">
<path d="M54.392 572.021C54.392 588.246 159.014 601.311 288.032 601.311C417.051 601.311 521.816 588.246 521.816 572.021C521.816 559.817 462.258 549.336 377.585 544.885C383.756 542.587 387.2 540.003 387.2 537.419C387.2 526.506 328.647 517.748 256.316 517.748C183.985 517.748 125.431 526.506 125.431 537.419C125.431 541.582 133.755 545.315 147.963 548.474C91.1315 553.93 54.392 562.545 54.392 572.021Z" fill="#BCB1FF"/>
<path d="M507.033 209.913C507.75 208.765 507.75 207.473 507.033 206.324C506.889 206.037 506.602 205.75 506.459 205.462C506.315 205.175 506.172 204.888 506.028 204.457C505.454 203.309 504.306 202.447 503.014 202.447L498.566 202.304L498.996 187.802L503.445 187.946C504.737 187.946 505.885 187.228 506.602 186.079C506.889 185.505 507.32 184.787 507.75 184.213C508.468 183.208 508.611 181.772 508.037 180.623L505.885 176.747L518.657 169.855L520.81 173.731C521.384 174.88 522.676 175.598 523.967 175.598C524.685 175.598 525.403 175.598 526.12 175.598C527.412 175.741 528.703 175.167 529.421 174.019L531.717 170.285L544.059 177.895L541.763 181.628C541.046 182.777 541.189 184.069 541.763 185.218C541.907 185.505 542.194 185.792 542.337 186.079C542.481 186.366 542.624 186.654 542.768 187.084C543.342 188.233 544.49 189.094 545.782 189.094L550.23 189.238L549.656 203.883L545.207 203.74C543.916 203.74 542.768 204.457 542.05 205.606C541.763 206.18 541.333 206.898 540.902 207.473C540.185 208.478 540.041 209.913 540.615 211.062L542.768 214.939L529.995 221.831L527.842 217.954C527.268 216.805 525.977 216.087 524.685 216.087C523.967 216.087 523.25 216.087 522.532 216.087C521.241 215.944 519.949 216.518 519.231 217.667L516.935 221.4L504.593 213.79L507.033 209.913ZM529.995 206.324C535.736 203.165 537.888 195.986 534.874 190.243C531.717 184.5 524.541 182.346 518.801 185.361C513.06 188.52 510.908 195.699 513.921 201.442C516.935 207.185 524.111 209.339 529.995 206.324Z" fill="#BCB1FF"/>
<path d="M274.398 38.0486H365.242V79.8302H274.398V38.0486Z" fill="#624970"/>
<path d="M280.138 32.3054H370.982V74.0871H280.138V32.3054Z" fill="#FF7BDD"/>
<path d="M312.578 61H310.693V54.4277H303.525V61H301.65V46.7812H303.525V52.8945H310.693V46.7812H312.578V61ZM325.439 48.3242H320.869V61H319.004V48.3242H314.443V46.7812H325.439V48.3242ZM329.971 46.7812L334.619 58.3828L339.268 46.7812H341.699V61H339.824V55.4629L340 49.4863L335.332 61H333.896L329.238 49.5156L329.424 55.4629V61H327.549V46.7812H329.971ZM346.895 59.4668H353.633V61H345.01V46.7812H346.895V59.4668Z" fill="white"/>
<path d="M389.927 158.656H460.967V200.437H389.927V158.656Z" fill="#624970"/>
<path d="M395.668 152.912H466.707V194.694H395.668V152.912Z" fill="#FFDE55"/>
<path d="M415.525 175.434V181H413.65V166.781H418.895C420.451 166.781 421.668 167.178 422.547 167.973C423.432 168.767 423.875 169.818 423.875 171.127C423.875 172.507 423.442 173.572 422.576 174.32C421.717 175.062 420.483 175.434 418.875 175.434H415.525ZM415.525 173.9H418.895C419.897 173.9 420.665 173.666 421.199 173.197C421.733 172.722 422 172.038 422 171.146C422 170.3 421.733 169.623 421.199 169.115C420.665 168.607 419.933 168.344 419.002 168.324H415.525V173.9ZM437.195 181H435.311V174.428H428.143V181H426.268V166.781H428.143V172.895H435.311V166.781H437.195V181ZM442.4 175.434V181H440.525V166.781H445.77C447.326 166.781 448.543 167.178 449.422 167.973C450.307 168.767 450.75 169.818 450.75 171.127C450.75 172.507 450.317 173.572 449.451 174.32C448.592 175.062 447.358 175.434 445.75 175.434H442.4ZM442.4 173.9H445.77C446.772 173.9 447.54 173.666 448.074 173.197C448.608 172.722 448.875 172.038 448.875 171.146C448.875 170.3 448.608 169.623 448.074 169.115C447.54 168.607 446.808 168.344 445.877 168.324H442.4V173.9Z" fill="white"/>
<path d="M347.59 99.2136H422.504V140.995H347.59V99.2136Z" fill="#624970"/>
<path d="M353.33 93.4705H428.244V135.252H353.33V93.4705Z" fill="white"/>
<path d="M377.109 117.488C376.934 118.992 376.377 120.154 375.439 120.975C374.508 121.788 373.268 122.195 371.719 122.195C370.039 122.195 368.691 121.593 367.676 120.389C366.667 119.184 366.162 117.573 366.162 115.555V114.188C366.162 112.866 366.396 111.704 366.865 110.701C367.34 109.699 368.011 108.93 368.877 108.396C369.743 107.856 370.745 107.586 371.885 107.586C373.395 107.586 374.606 108.009 375.518 108.855C376.429 109.695 376.96 110.861 377.109 112.352H375.225C375.062 111.219 374.707 110.398 374.16 109.891C373.62 109.383 372.861 109.129 371.885 109.129C370.687 109.129 369.746 109.572 369.062 110.457C368.385 111.342 368.047 112.602 368.047 114.236V115.613C368.047 117.156 368.369 118.383 369.014 119.295C369.658 120.206 370.56 120.662 371.719 120.662C372.76 120.662 373.558 120.428 374.111 119.959C374.671 119.484 375.042 118.66 375.225 117.488H377.109ZM382.1 107.781L386.748 119.383L391.396 107.781H393.828V122H391.953V116.463L392.129 110.486L387.461 122H386.025L381.367 110.516L381.553 116.463V122H379.678V107.781H382.1ZM401.328 115.662C399.72 115.2 398.548 114.633 397.812 113.963C397.083 113.286 396.719 112.452 396.719 111.463C396.719 110.343 397.165 109.419 398.057 108.689C398.955 107.954 400.12 107.586 401.553 107.586C402.529 107.586 403.398 107.775 404.16 108.152C404.928 108.53 405.521 109.051 405.938 109.715C406.361 110.379 406.572 111.105 406.572 111.893H404.688C404.688 111.033 404.414 110.359 403.867 109.871C403.32 109.376 402.549 109.129 401.553 109.129C400.628 109.129 399.906 109.334 399.385 109.744C398.87 110.148 398.613 110.711 398.613 111.434C398.613 112.013 398.857 112.505 399.346 112.908C399.84 113.305 400.677 113.67 401.855 114.002C403.04 114.334 403.965 114.702 404.629 115.105C405.299 115.503 405.794 115.968 406.113 116.502C406.439 117.036 406.602 117.664 406.602 118.387C406.602 119.539 406.152 120.464 405.254 121.16C404.355 121.85 403.154 122.195 401.65 122.195C400.674 122.195 399.762 122.01 398.916 121.639C398.07 121.261 397.415 120.747 396.953 120.096C396.497 119.445 396.27 118.706 396.27 117.879H398.154C398.154 118.738 398.47 119.419 399.102 119.92C399.74 120.415 400.589 120.662 401.65 120.662C402.64 120.662 403.398 120.46 403.926 120.057C404.453 119.653 404.717 119.103 404.717 118.406C404.717 117.71 404.473 117.173 403.984 116.795C403.496 116.411 402.611 116.033 401.328 115.662Z" fill="#907DFF"/>
<path d="M480.915 264.186C480.915 264.186 481.919 264.043 483.785 263.756" stroke="#907DFF" stroke-linecap="round" stroke-linejoin="round"/>
<path d="M489.094 262.464C503.159 258.443 529.565 246.526 525.69 213.79C522.533 187.371 506.029 178.469 493.113 175.598" stroke="#907DFF" stroke-linecap="round" stroke-linejoin="round" stroke-dasharray="3.92 3.92"/>
<path d="M490.387 175.024C489.382 174.88 488.521 174.736 487.516 174.593" stroke="#907DFF" stroke-linecap="round" stroke-linejoin="round"/>
<path d="M489.381 182.059L477.182 174.449L489.955 167.701L489.381 182.059Z" fill="#907DFF"/>
<path d="M370.84 186.51C370.84 186.51 369.835 186.941 368.113 187.371" stroke="#907DFF" stroke-linecap="round" stroke-linejoin="round"/>
<path d="M362.516 188.663C349.743 191.104 325.776 191.679 315.874 165.691C308.124 145.446 315.73 132.237 323.91 124.483" stroke="#907DFF" stroke-linecap="round" stroke-linejoin="round" stroke-dasharray="4.06 4.06"/>
<path d="M326.063 122.617C326.781 122.043 327.642 121.468 328.359 120.894" stroke="#907DFF" stroke-linecap="round" stroke-linejoin="round"/>
<path d="M322.906 115.869L337.258 115.725L330.226 128.217L322.906 115.869Z" fill="#907DFF"/>
<path d="M434.272 110.413C434.272 110.413 435.133 109.838 436.568 108.69" stroke="#907DFF" stroke-linecap="round" stroke-linejoin="round"/>
<path d="M440.874 104.669C450.059 95.4803 464.123 75.9535 448.193 53.1243C435.851 35.3205 420.638 34.1718 409.588 36.6127" stroke="#907DFF" stroke-linecap="round" stroke-linejoin="round" stroke-dasharray="4.06 4.06"/>
<path d="M406.719 37.3308C405.714 37.618 404.853 37.9051 403.992 38.1923" stroke="#907DFF" stroke-linecap="round" stroke-linejoin="round"/>
<path d="M409.014 43.9354L394.662 42.7867L402.986 31.0132L409.014 43.9354Z" fill="#907DFF"/>
<path d="M544.583 272.584C544.836 274.747 545.637 276.419 546.985 277.598C548.324 278.769 550.108 279.354 552.337 279.354C554.752 279.354 556.691 278.488 558.151 276.756C559.603 275.023 560.329 272.706 560.329 269.803V267.837C560.329 265.936 559.991 264.264 559.317 262.822C558.634 261.38 557.669 260.275 556.424 259.508C555.178 258.73 553.736 258.342 552.098 258.342C549.925 258.342 548.184 258.95 546.873 260.168C545.562 261.376 544.799 263.052 544.583 265.196H547.294C547.528 263.567 548.039 262.387 548.825 261.657C549.602 260.926 550.693 260.561 552.098 260.561C553.821 260.561 555.174 261.198 556.157 262.471C557.131 263.745 557.618 265.557 557.618 267.907V269.887C557.618 272.107 557.154 273.872 556.227 275.183C555.3 276.494 554.003 277.149 552.337 277.149C550.838 277.149 549.691 276.812 548.895 276.138C548.09 275.454 547.556 274.27 547.294 272.584H544.583ZM541.381 277.711C541.381 277.261 541.25 276.887 540.988 276.587C540.716 276.288 540.313 276.138 539.78 276.138C539.246 276.138 538.843 276.288 538.572 276.587C538.291 276.887 538.15 277.261 538.15 277.711C538.15 278.142 538.291 278.502 538.572 278.792C538.843 279.083 539.246 279.228 539.78 279.228C540.313 279.228 540.716 279.083 540.988 278.792C541.25 278.502 541.381 278.142 541.381 277.711ZM541.367 265.308C541.367 264.859 541.236 264.484 540.974 264.185C540.702 263.885 540.299 263.735 539.766 263.735C539.232 263.735 538.829 263.885 538.558 264.185C538.277 264.484 538.136 264.859 538.136 265.308C538.136 265.739 538.277 266.1 538.558 266.39C538.829 266.68 539.232 266.825 539.766 266.825C540.299 266.825 540.702 266.68 540.974 266.39C541.236 266.1 541.367 265.739 541.367 265.308ZM533.81 280.829H536.043L527.504 258.623H525.284L533.81 280.829Z" fill="#907DFF"/>
<path d="M343.705 233.221L337.994 235.529V237.317L345.456 233.859V232.528L337.994 229.079V230.867L343.705 233.221ZM334.992 240.236H336.443L330.896 225.813H329.455L334.992 240.236ZM321.655 233.166L327.685 230.803V229.07L319.894 232.518V233.85L327.685 237.308V235.556L321.655 233.166Z" fill="#907DFF"/>
<path d="M520.201 86.587C523.157 85.7519 525.387 84.3739 526.89 82.4531C528.377 80.549 529.12 78.0269 529.12 74.8868V69.901C529.12 65.8422 530.891 63.8129 534.432 63.8129V60.18C530.891 60.18 529.12 58.159 529.12 54.1169V48.9057C529.087 45.8491 528.344 43.3854 526.89 41.5147C525.421 39.6273 523.191 38.2577 520.201 37.4058L519.249 40.2871C522.74 41.4061 524.485 44.3208 524.485 49.0309V54.0919C524.485 57.8834 525.88 60.5224 528.669 62.009C525.88 63.5122 524.485 66.1763 524.485 70.0012V75.1624C524.435 79.7556 522.69 82.6034 519.249 83.7058L520.201 86.587ZM505.444 83.7058C502.053 82.6201 500.3 79.8558 500.183 75.4129V69.901C500.183 66.0427 498.671 63.412 495.648 62.009C498.671 60.6393 500.183 58.0087 500.183 54.1169V49.0309C500.183 44.3208 501.928 41.4061 505.419 40.2871L504.467 37.4058C501.511 38.241 499.289 39.6022 497.803 41.4897C496.316 43.3604 495.564 45.8407 495.548 48.9307V54.1921C495.548 58.184 493.777 60.18 490.236 60.18V63.8129C493.777 63.8129 495.548 65.8422 495.548 69.901V74.9619C495.548 78.102 496.308 80.6158 497.828 82.5032C499.331 84.3906 501.544 85.7519 504.467 86.587L505.444 83.7058Z" fill="white"/>
<path d="M51.9513 299.507C53.3864 298.646 54.104 297.21 53.9604 295.63C53.9604 295.2 53.9604 294.769 53.9604 294.338C53.9604 293.908 53.9604 293.477 53.9604 293.046C54.104 291.467 53.2429 289.887 51.9513 289.169L47.2153 286.441L56.1131 270.935L60.8491 273.663C62.2842 274.524 64.0064 274.381 65.298 273.519C66.0156 273.088 66.8767 272.658 67.5942 272.227C69.0294 271.509 69.8905 270.073 69.8905 268.494V262.751H87.6862V268.207C87.6862 269.786 88.5473 271.222 89.9824 271.94C90.8435 272.371 91.5611 272.801 92.2786 273.232C93.5703 274.094 95.2924 274.237 96.7275 273.376L101.464 270.648L110.361 286.154L105.625 288.882C104.19 289.744 103.473 291.179 103.616 292.759C103.616 293.19 103.616 293.62 103.616 294.051C103.616 294.482 103.616 294.913 103.616 295.343C103.473 296.923 104.334 298.502 105.625 299.22L110.361 301.948L101.464 317.455L96.7275 314.727C95.2924 313.865 93.5703 314.009 92.2786 314.87C91.5611 315.301 90.7 315.732 89.9824 316.162C88.5473 316.88 87.6862 318.316 87.6862 319.895V325.351H69.8905V320.183C69.8905 318.603 69.0294 317.167 67.5942 316.449C66.7332 316.019 66.0156 315.588 65.298 315.157C64.0064 314.296 62.2842 314.152 60.8491 315.014L56.1131 317.742L47.2153 302.235L51.9513 299.507ZM78.9318 308.84C86.9686 308.84 93.5702 302.235 93.5702 294.195C93.5702 286.154 86.9686 279.55 78.9318 279.55C70.8951 279.55 64.2934 286.154 64.2934 294.195C64.2934 302.235 70.8951 308.84 78.9318 308.84Z" fill="white"/>
<path d="M356.775 343.442C358.211 342.581 358.928 341.145 358.785 339.566C358.785 339.135 358.785 338.704 358.785 338.274C358.785 337.843 358.785 337.412 358.785 336.981C358.928 335.402 358.067 333.823 356.775 333.105L352.04 330.377L360.937 314.87L365.673 317.598C367.108 318.46 368.831 318.316 370.122 317.454C370.84 317.024 371.701 316.593 372.418 316.162C373.854 315.444 374.715 314.009 374.715 312.429V306.973H392.51V312.429C392.51 314.009 393.371 315.444 394.807 316.162C395.668 316.593 396.385 317.024 397.103 317.454C398.394 318.316 400.117 318.46 401.552 317.598L406.288 314.87L415.186 330.377L410.45 333.105C409.014 333.966 408.297 335.402 408.44 336.981C408.44 337.412 408.44 337.843 408.44 338.274C408.44 338.704 408.44 339.135 408.44 339.566C408.297 341.145 409.158 342.724 410.45 343.442L415.186 346.17L406.288 361.677L401.552 358.949C400.117 358.087 398.394 358.231 397.103 359.093C396.385 359.523 395.524 359.954 394.807 360.385C393.371 361.103 392.51 362.538 392.51 364.118V369.574H374.715V364.118C374.715 362.538 373.854 361.103 372.418 360.385C371.557 359.954 370.84 359.523 370.122 359.093C368.831 358.231 367.108 358.087 365.673 358.949L360.937 361.677L352.04 346.17L356.775 343.442ZM383.756 352.775C391.793 352.775 398.394 346.17 398.394 338.13C398.394 330.089 391.793 323.485 383.756 323.485C375.719 323.485 369.118 330.089 369.118 338.13C369.118 346.17 375.719 352.775 383.756 352.775Z" fill="#BCB1FF"/>
<path d="M325.919 389.244C326.924 388.67 327.498 387.521 327.354 386.373C327.354 386.086 327.354 385.798 327.354 385.368C327.354 385.081 327.354 384.793 327.354 384.363C327.354 383.214 326.924 382.065 325.919 381.491L322.475 379.481L328.933 368.425L332.377 370.435C333.382 371.01 334.674 371.01 335.535 370.292C336.109 370.005 336.683 369.574 337.257 369.287C338.261 368.712 338.979 367.707 338.979 366.559V362.682H351.752V366.559C351.752 367.707 352.469 368.712 353.474 369.287C354.048 369.574 354.622 369.861 355.196 370.292C356.201 370.866 357.349 371.01 358.353 370.435L361.798 368.425L368.256 379.481L364.812 381.491C363.807 382.065 363.233 383.214 363.376 384.363C363.376 384.65 363.376 384.937 363.376 385.368C363.376 385.655 363.376 385.942 363.376 386.373C363.376 387.521 363.807 388.67 364.812 389.244L368.256 391.254L361.798 402.31L358.353 400.3C357.349 399.726 356.057 399.726 355.196 400.444C354.622 400.731 354.048 401.161 353.474 401.449C352.469 402.023 351.752 403.028 351.752 404.177V408.053H338.979V404.177C338.979 403.028 338.261 402.023 337.257 401.449C336.683 401.161 336.109 400.874 335.535 400.444C334.53 399.869 333.382 399.726 332.377 400.3L328.933 402.31L322.475 391.254L325.919 389.244ZM345.294 395.993C351.034 395.993 355.77 391.254 355.77 385.511C355.77 379.768 351.034 375.03 345.294 375.03C339.553 375.03 334.817 379.768 334.817 385.511C334.817 391.254 339.553 395.993 345.294 395.993Z" fill="white"/>
<path d="M472.734 221.974C473.308 221.543 473.739 220.826 473.739 220.108C473.739 219.964 473.739 219.677 473.739 219.533C473.739 219.39 473.739 219.103 473.739 218.959C473.739 218.241 473.452 217.523 472.734 217.092L470.582 215.8L474.743 208.621L476.896 209.913C477.47 210.344 478.331 210.201 478.905 209.77C479.192 209.483 479.623 209.339 479.91 209.196C480.628 208.908 481.058 208.191 481.058 207.473V204.888H489.238V207.473C489.238 208.191 489.669 208.908 490.386 209.196C490.817 209.339 491.104 209.626 491.391 209.77C491.965 210.201 492.826 210.201 493.4 209.913L495.553 208.621L499.715 215.8L497.562 217.092C496.988 217.523 496.558 218.098 496.558 218.959C496.558 219.103 496.558 219.39 496.558 219.533C496.558 219.677 496.558 219.964 496.558 220.108C496.558 220.826 496.845 221.543 497.562 221.974L499.715 223.266L495.553 230.445L493.4 229.153C492.826 228.722 491.965 228.866 491.391 229.153C491.104 229.44 490.673 229.584 490.386 229.727C489.669 230.015 489.238 230.733 489.238 231.45V234.035H481.058V231.45C481.058 230.733 480.628 230.015 479.91 229.727C479.479 229.584 479.192 229.297 478.905 229.153C478.331 228.722 477.47 228.722 476.896 229.153L474.743 230.445L470.582 223.266L472.734 221.974ZM485.22 226.425C488.951 226.425 491.965 223.41 491.965 219.677C491.965 215.944 488.951 212.929 485.22 212.929C481.489 212.929 478.475 215.944 478.475 219.677C478.475 223.41 481.489 226.425 485.22 226.425Z" fill="white"/>
<path d="M206.086 54.1294C206.66 53.6987 207.09 52.9808 207.09 52.2629C207.09 52.1193 207.09 51.8322 207.09 51.6886C207.09 51.545 207.09 51.2578 207.09 51.1143C207.09 50.3964 206.803 49.6785 206.086 49.2477L203.933 47.9555L208.095 40.7765L210.248 42.0687C210.822 42.4995 211.683 42.3559 212.257 41.9252C212.544 41.638 212.974 41.4944 213.261 41.3508C213.979 41.0637 214.41 40.3458 214.41 39.6279V37.0435H222.59V39.6279C222.59 40.3458 223.02 41.0637 223.738 41.3508C224.169 41.4944 224.456 41.7816 224.743 41.9252C225.317 42.3559 226.178 42.3559 226.752 42.0687L228.904 40.7765L233.066 47.9555L230.914 49.2477C230.34 49.6785 229.909 50.2528 229.909 51.1143C229.909 51.2578 229.909 51.545 229.909 51.6886C229.909 51.8322 229.909 52.1193 229.909 52.2629C229.909 52.9808 230.196 53.6987 230.914 54.1294L233.066 55.4216L228.904 62.6006L226.752 61.3084C226.178 60.8777 225.317 61.0213 224.743 61.3084C224.456 61.5956 224.025 61.7391 223.738 61.8827C223.02 62.1699 222.59 62.8878 222.59 63.6057V66.1901H214.41V63.6057C214.41 62.8878 213.979 62.1699 213.261 61.8827C212.831 61.7391 212.544 61.452 212.257 61.3084C211.683 60.8777 210.822 60.8777 210.248 61.3084L208.095 62.6006L203.933 55.4216L206.086 54.1294ZM218.571 58.4368C222.303 58.4368 225.317 55.4216 225.317 51.6886C225.317 47.9555 222.303 44.9403 218.571 44.9403C214.84 44.9403 211.826 47.9555 211.826 51.6886C211.826 55.4216 214.84 58.4368 218.571 58.4368Z" fill="white"/>
<path d="M34.5864 358.949C35.1604 358.088 35.1604 356.939 34.5864 355.934C34.4428 355.647 34.2994 355.36 34.1558 355.216C34.0123 354.929 33.8688 354.642 33.7253 354.354C33.2947 353.349 32.2902 352.775 31.2856 352.632L27.5542 352.488L27.9847 340.571L31.7161 340.714C32.8642 340.714 33.7253 340.14 34.2993 339.279C34.5863 338.704 34.8734 338.274 35.3039 337.699C35.878 336.838 36.0215 335.689 35.4474 334.684L33.7253 331.382L44.3453 325.782L46.0675 329.084C46.6415 330.089 47.5026 330.664 48.6507 330.52C49.2247 330.52 49.7988 330.52 50.3729 330.52C51.3775 330.664 52.5256 330.09 53.0996 329.228L54.9653 326.069L65.1548 332.387L63.1456 335.546C62.5715 336.407 62.5715 337.556 63.1456 338.561C63.2891 338.848 63.4326 339.135 63.5761 339.279C63.7197 339.566 63.8632 339.853 64.0067 339.997C64.4372 341.002 65.4418 341.576 66.4464 341.719L70.1777 341.863L69.7472 353.78L66.0158 353.637C64.8677 353.637 64.0067 354.211 63.4326 355.072C63.1456 355.647 62.8585 356.077 62.428 356.652C61.8539 357.513 61.7104 358.662 62.2845 359.667L64.0067 362.826L53.3867 368.425L51.6645 365.267C51.0904 364.261 50.0858 363.687 49.0812 363.831C48.5072 363.831 47.9331 363.831 47.3591 363.831C46.3545 363.687 45.2064 364.261 44.6323 365.123L42.7667 368.282L32.5772 361.964L34.5864 358.949ZM53.5302 355.934C58.2661 353.349 60.1318 347.463 57.5485 342.581C54.9653 337.699 49.0813 335.976 44.2018 338.561C39.4658 341.145 37.6001 347.032 40.1834 351.77C42.7666 356.652 48.7942 358.518 53.5302 355.934Z" fill="#BCB1FF"/>
<path d="M260.907 383.07L280.424 572.165H285.734L272.818 383.07H260.907Z" fill="#624970"/>
<path d="M241.532 369L260.906 558.237H266.359L253.3 369H241.532Z" fill="#624970"/>
<path d="M142.938 383.07L123.42 572.165H118.11L131.026 383.07H142.938Z" fill="#624970"/>
<path d="M162.312 369L142.938 558.237H137.485L150.544 369H162.312Z" fill="#624970"/>
<path d="M118.971 389.101C121.842 398.433 272.531 399.725 282.721 390.536C292.91 381.347 296.498 370.866 294.632 366.271C294.058 364.836 286.739 363.256 276.693 361.533C252.439 357.513 212.112 353.493 212.112 353.493C212.112 353.493 243.828 228.866 246.268 174.593C246.842 162.245 245.838 153.486 242.537 150.758C227.898 138.698 111.652 137.262 101.893 150.758C92.1344 164.255 116.101 379.768 118.971 389.101Z" fill="#FF7BDD"/>
<path d="M207.951 540.577C207.09 544.885 263.204 563.981 264.639 559.673C265.213 558.094 261.625 553.93 256.889 549.479C249.283 542.3 238.95 533.973 239.093 533.255C239.237 532.824 241.246 525.789 243.542 518.61C244.26 516.456 244.834 514.302 245.551 512.292C247.274 506.836 248.565 502.385 248.565 502.385C248.565 502.385 232.922 493.77 215.844 495.924C215.844 495.924 215.27 498.939 214.552 503.39C214.122 505.687 213.691 508.415 213.117 511.287C211.969 517.748 210.678 525.214 209.673 530.957C208.812 535.696 208.094 539.429 207.951 540.577Z" fill="#FFF3E1"/>
<path d="M207.951 540.577C207.09 544.885 263.204 563.981 264.639 559.673C265.213 558.094 261.625 553.93 256.889 549.479C249.283 542.3 238.95 533.973 239.093 533.255C239.093 532.968 239.667 531.101 240.528 528.373C240.672 527.799 240.816 527.368 240.959 526.794C241.246 525.789 241.677 524.64 241.964 523.348C242.107 522.917 242.251 522.343 242.394 521.768C242.681 520.763 243.112 519.615 243.399 518.61C236.51 518.179 224.168 516.599 213.117 511.143C212.974 512.292 212.687 513.441 212.543 514.733C212.4 515.451 212.256 516.169 212.113 516.743C211.969 517.605 211.826 518.322 211.682 519.184C211.539 519.902 211.395 520.62 211.395 521.194C210.821 524.496 210.247 527.799 209.673 530.67C208.812 535.696 208.094 539.429 207.951 540.577Z" fill="#FFDE55"/>
<path d="M212.113 516.887C217.136 519.471 222.733 521.338 228.33 522.343C232.636 523.204 237.372 523.778 241.964 523.491C242.107 523.06 242.251 522.486 242.395 521.912C232.062 522.343 221.729 519.184 212.4 514.876C212.4 515.451 212.257 516.169 212.113 516.887Z" fill="#624970"/>
<path d="M211.395 521.338C216.705 524.209 222.589 526.076 228.473 527.224C232.205 527.942 236.51 528.517 240.528 528.373C240.672 527.799 240.815 527.368 240.959 526.794C230.769 526.937 220.724 523.635 211.682 519.327C211.682 520.045 211.539 520.62 211.395 521.338Z" fill="#624970"/>
<path d="M206.516 541.439C209.53 544.454 214.984 547.469 221.442 550.197C237.659 557.089 259.903 562.401 264.496 561.683C266.362 561.396 267.797 557.089 263.061 551.059C259.329 546.32 239.524 531.388 239.524 531.388C223.881 533.255 210.248 523.491 210.248 523.491C210.248 523.491 209.53 525.645 208.813 528.517C207.377 533.398 205.512 540.577 206.516 541.439Z" fill="#FF7BDD"/>
<path d="M206.373 541.152C223.595 553.787 244.261 558.094 265.07 561.109C266.936 561.396 266.362 564.411 264.64 564.268C254.02 563.55 242.252 561.109 231.775 557.95C222.016 554.935 212.688 550.771 204.364 544.741C202.211 543.162 204.221 539.572 206.373 541.152Z" fill="#FFF3E1"/>
<path d="M246.7 544.741C248.853 542.3 253.876 540.29 256.89 541.87C257.751 542.3 257.607 543.736 256.603 543.88C255.167 544.31 253.589 544.31 252.154 544.885C250.719 545.459 249.427 546.464 247.992 546.895C246.557 547.469 245.696 545.746 246.7 544.741Z" fill="#FFF3E1"/>
<path d="M243.829 541.87C245.982 539.429 251.005 537.419 254.019 538.998C254.88 539.429 254.736 540.864 253.732 541.008C252.296 541.439 250.718 541.439 249.283 542.013C247.847 542.587 246.556 543.593 245.121 544.023C243.829 544.598 242.968 542.875 243.829 541.87Z" fill="#FFF3E1"/>
<path d="M241.102 538.998C243.255 536.557 248.278 534.547 251.292 536.126C252.153 536.557 252.01 537.993 251.005 538.136C249.57 538.567 247.991 538.567 246.556 539.141C245.121 539.716 243.829 540.721 242.394 541.152C240.959 541.726 240.098 539.859 241.102 538.998Z" fill="#FFF3E1"/>
<path d="M206.516 541.439C209.529 544.454 214.983 547.469 221.441 550.197C222.733 544.741 221.441 538.711 217.71 534.26C216.131 532.537 212.4 529.522 208.812 528.373C207.377 533.398 205.511 540.577 206.516 541.439Z" fill="#FFF3E1"/>
<path d="M311.711 431.17C311.711 431.17 313.003 436.051 314.725 442.512C315.299 444.81 316.016 447.394 316.734 449.979C318.026 455.004 319.317 460.173 320.465 464.337C321.47 468.357 322.331 471.515 322.474 472.521C323.479 476.828 379.162 491.042 382.033 487.453C384.472 484.438 376.723 477.402 368.112 470.798C358.64 463.475 348.02 456.727 348.02 456.296C347.876 455.865 347.159 449.261 346.298 442.225C346.011 439.784 345.724 437.2 345.437 434.903C344.719 429.016 344.145 424.278 344.145 424.278C344.145 424.278 326.493 422.268 311.711 431.17Z" fill="#FFF3E1"/>
<path d="M316.734 449.835C317.021 450.84 317.308 451.989 317.595 452.994C317.738 453.712 317.882 454.286 318.169 455.004C318.313 455.865 318.6 456.583 318.743 457.445C318.887 458.162 319.03 458.737 319.317 459.455C319.748 461.034 320.178 462.613 320.465 464.193C321.47 468.213 322.331 471.372 322.474 472.377C323.479 476.684 379.162 490.899 382.033 487.309C384.472 484.294 376.723 477.259 368.112 470.654C358.64 463.331 348.02 456.583 348.02 456.152C348.02 456.009 347.876 454.717 347.589 452.706C347.446 452.132 347.446 451.701 347.446 451.127C347.302 449.978 347.159 448.83 347.015 447.394C347.015 446.82 346.872 446.389 346.872 445.815C346.728 444.666 346.585 443.374 346.441 442.082C341.275 445.097 331.516 449.548 316.734 449.835Z" fill="#FFDE55"/>
<path d="M317.595 452.994C317.739 453.712 317.882 454.286 318.169 455.004C323.479 455.004 328.933 453.999 333.956 452.563C338.261 451.271 343.141 449.691 347.016 447.107C347.016 446.533 346.872 446.102 346.872 445.527C337.974 450.696 327.641 452.706 317.595 452.994Z" fill="#624970"/>
<path d="M318.743 457.445C318.886 458.162 319.03 458.737 319.317 459.455C325.057 459.455 330.798 458.593 336.108 457.014C339.839 455.865 344.001 454.573 347.732 452.563C347.589 451.989 347.589 451.558 347.589 450.984C338.691 455.434 328.502 457.157 318.743 457.445Z" fill="#624970"/>
<path d="M319.605 461.321C319.605 461.465 319.892 463.475 320.179 466.059C320.753 470.51 321.757 476.397 322.475 476.972C325.489 479.843 331.803 481.566 338.692 483.289C339.409 483.433 340.271 483.72 341.132 483.863C357.923 487.74 378.876 489.319 383.181 488.027C385.047 487.453 385.621 482.858 380.024 477.689C375.718 473.526 350.46 456.296 350.46 456.296C334.386 465.198 319.892 461.465 319.892 461.465C319.605 461.321 319.605 461.321 319.605 461.321Z" fill="#FF7BDD"/>
<path d="M322.187 476.828C341.131 486.591 362.228 487.596 383.181 487.453C385.046 487.453 385.046 490.612 383.181 490.755C372.561 491.617 360.506 491.186 349.742 489.607C339.553 488.027 329.794 485.586 320.609 480.848C318.456 479.412 319.891 475.536 322.187 476.828Z" fill="#FFF3E1"/>
<path d="M356.774 469.649C358.64 466.921 363.232 464.193 366.389 465.198C367.25 465.485 367.25 466.921 366.389 467.352C364.954 467.926 363.519 468.213 362.084 469.075C360.792 469.936 359.644 471.085 358.353 471.803C357.204 472.377 356.056 470.654 356.774 469.649Z" fill="#FFF3E1"/>
<path d="M353.618 467.208C355.483 464.48 360.076 461.752 363.233 462.901C364.094 463.188 364.094 464.624 363.233 465.054C361.798 465.629 360.363 465.916 358.928 466.777C357.636 467.639 356.488 468.788 355.196 469.505C354.048 469.936 352.9 468.213 353.618 467.208Z" fill="#FFF3E1"/>
<path d="M350.459 464.767C352.325 462.039 356.918 459.311 360.075 460.316C360.936 460.603 360.936 462.039 360.075 462.47C358.64 463.044 357.205 463.331 355.769 464.193C354.478 465.054 353.33 466.203 352.038 466.921C350.746 467.495 349.742 465.772 350.459 464.767Z" fill="#FFF3E1"/>
<path d="M320.178 466.49C320.752 470.798 321.757 476.828 322.474 477.402C325.488 480.274 331.802 481.997 338.691 483.72C339.409 483.863 340.27 484.151 341.131 484.294C339.409 474.1 330.367 467.352 320.178 466.49Z" fill="#FFF3E1"/>
<path d="M137.915 348.468C155.137 381.491 185.275 377.614 226.176 372.733C228.616 372.445 232.922 371.584 238.232 370.579C238.519 370.579 238.806 370.435 239.093 370.435C239.523 370.292 239.954 370.292 240.384 370.148C252.87 367.851 268.513 365.41 272.818 368.425C275.689 370.579 284.587 393.552 292.767 413.078C292.91 413.509 293.054 413.94 293.341 414.371C293.484 414.658 293.628 415.089 293.771 415.519C299.512 429.016 304.678 440.359 307.262 441.364C309.271 442.082 311.854 442.369 314.724 442.369C324.34 442.369 337.543 438.636 345.436 434.472C348.307 433.036 350.459 431.457 351.464 429.877C356.487 422.985 328.645 327.218 307.262 313.434C289.753 302.091 254.162 297.784 223.163 297.21C218.14 297.066 217.279 290.318 215.413 288.451H148.535C148.535 288.451 123.133 320.039 137.915 348.468Z" fill="#907DFF"/>
<path d="M209.816 499.801C210.821 500.949 212.543 502.098 214.552 503.247C222.302 507.554 235.936 511.143 245.408 512.292C250.861 512.866 255.023 512.579 256.028 511.143C258.611 507.697 283.008 462.183 292.911 415.95C293.054 415.376 293.198 414.945 293.198 414.371C293.341 413.509 293.628 412.504 293.772 411.643C294.776 406.474 295.638 401.161 296.212 395.993C297.073 388.383 297.36 380.917 296.929 373.738C296.499 367.133 294.633 361.677 291.763 357.37C284.013 346.17 269.087 343.442 255.884 351.339C249.57 355.072 243.686 361.39 239.093 370.292C238.519 371.297 238.088 372.446 237.514 373.594C237.371 373.881 237.227 374.025 237.227 374.312C220.58 413.222 205.654 495.206 209.816 499.801Z" fill="#907DFF"/>
<path d="M237.515 373.738C238.519 372.589 239.524 371.44 240.385 370.292C245.551 363.831 250.144 356.365 257.75 353.206C268.514 348.755 281.717 350.478 290.041 358.949C298.939 367.995 297.503 380.629 295.207 391.972C293.629 399.726 292.48 405.899 292.767 413.222C292.767 414.084 292.911 415.089 292.911 415.95C293.055 415.376 293.198 414.945 293.198 414.371C293.342 414.658 293.485 415.089 293.629 415.519C293.629 414.227 293.629 412.935 293.772 411.643C294.059 406.617 295.064 401.305 296.212 395.992C298.939 381.922 301.809 367.851 291.619 357.513C290.328 356.221 288.893 354.929 287.17 353.78C278.703 347.893 267.509 347.032 257.894 350.621C257.176 350.909 256.459 351.196 255.741 351.626C248.278 355.359 242.538 363.256 238.089 370.723C238.376 370.723 238.663 370.579 238.95 370.579C238.519 371.44 238.089 372.589 237.515 373.738Z" fill="#D3CBFF"/>
<path d="M201.351 55.996C209.387 52.9808 218.142 62.0264 219.146 67.3388C220.151 72.5077 215.558 81.8404 207.665 85.717C199.772 89.5937 188.721 84.7119 184.99 79.9738C181.259 75.3793 182.263 67.4824 186.569 65.1851C190.444 63.175 191.879 64.0365 194.318 62.3135C196.615 60.5906 197.476 57.4318 201.351 55.996Z" fill="#624970"/>
<path d="M156.717 156.933C156.717 156.933 165.185 172.87 198.48 181.197C222.447 187.228 238.807 183.925 245.409 181.915C247.131 181.341 248.279 180.91 248.566 180.767H248.71C248.71 180.767 242.969 172.152 250.863 160.091C259.186 147.313 250.575 139.559 250.432 129.796C250.288 121.325 254.02 113.284 254.02 113.284C266.218 93.1832 237.659 78.1073 230.197 76.0972C219.002 72.9385 206.66 76.2408 200.633 78.5381C196.614 80.1174 193.6 82.2711 191.304 84.5684C184.272 91.7474 183.842 100.936 182.55 104.095C179.823 110.7 170.638 112.423 167.768 122.33C164.898 132.237 168.629 136.831 167.481 142.862C166.189 148.892 156.717 156.933 156.717 156.933Z" fill="#624970"/>
<path d="M270.092 242.793C268.082 243.655 254.305 218.097 234.931 196.56C218.857 178.613 195.321 185.936 204.506 214.939C213.691 243.942 267.939 284.144 278.128 284.144C290.327 284.144 308.123 232.168 310.706 213.503C311.567 207.616 296.785 197.135 292.91 202.591C287.313 210.201 273.536 241.357 270.092 242.793Z" fill="#FFF3E1"/>
<path d="M216.992 174.305C223.881 176.316 263.203 223.553 262.916 228.148C262.629 232.742 252.87 256.577 230.626 256.577C228.043 256.577 192.308 214.221 193.169 198.427C194.173 182.633 211.825 172.87 216.992 174.305Z" fill="#FFDE55"/>
<path d="M328.359 199.719C323.524 199.719 319.605 198.434 319.605 196.848C319.605 195.262 323.524 193.976 328.359 193.976C333.194 193.976 337.113 195.262 337.113 196.848C337.113 198.434 333.194 199.719 328.359 199.719Z" fill="#FFF3E1"/>
<path d="M310.563 213.503C310.563 213.503 311.998 204.17 315.155 202.017C318.312 199.863 326.062 196.561 328.789 192.253C331.516 188.089 315.729 183.926 311.998 184.5C308.266 185.074 301.378 187.371 297.933 191.822C294.202 196.704 290.04 206.468 290.04 206.468C290.04 206.468 303.1 217.092 310.563 213.503Z" fill="#FFF3E1"/>
<path d="M299.657 200.724H326.637L328.072 164.255H298.221L299.657 200.724Z" fill="#FF7BDD"/>
<path d="M299.656 200.724C299.656 202.447 305.684 203.883 313.146 203.883C320.609 203.883 326.637 202.447 326.637 200.724C326.637 199.001 320.609 197.565 313.146 197.565C305.684 197.565 299.656 198.858 299.656 200.724Z" fill="#FF7BDD"/>
<path d="M313.147 167.845C304.904 167.845 298.221 166.237 298.221 164.255C298.221 162.273 304.904 160.666 313.147 160.666C321.39 160.666 328.072 162.273 328.072 164.255C328.072 166.237 321.39 167.845 313.147 167.845Z" fill="#624970"/>
<path d="M298.221 177.608L298.508 186.51C298.508 188.376 304.966 189.956 313.003 189.956C321.04 189.956 327.498 188.376 327.498 186.51L327.785 177.608C327.355 179.474 320.896 180.91 312.86 180.91C305.253 181.054 298.652 179.474 298.221 177.608Z" fill="#624970"/>
<path d="M291.332 204.027C292.049 200.868 290.327 192.397 291.332 189.956C292.336 187.515 300.66 180.767 304.105 180.91C307.549 181.054 318.025 181.772 318.025 185.218C318.025 188.664 305.396 187.658 304.535 189.238C303.674 190.817 307.979 196.704 305.683 202.734C303.387 208.621 291.332 204.027 291.332 204.027Z" fill="#FFF3E1"/>
<path d="M326.923 188.663C322.089 188.663 318.169 187.249 318.169 185.505C318.169 183.76 322.089 182.346 326.923 182.346C331.758 182.346 335.678 183.76 335.678 185.505C335.678 187.249 331.758 188.663 326.923 188.663Z" fill="#FFF3E1"/>
<path d="M317.165 180.479C317.309 182.202 321.327 183.351 326.206 182.92C331.086 182.49 334.817 180.767 334.674 179.044C334.53 177.321 330.512 176.172 325.632 176.603C320.896 176.89 317.022 178.756 317.165 180.479Z" fill="#FFF3E1"/>
<path d="M317.165 190.817C317.022 192.54 320.897 194.263 325.776 194.407C330.655 194.694 334.674 193.402 334.674 191.679C334.817 189.956 330.943 188.233 326.063 188.089C321.184 187.802 317.309 189.094 317.165 190.817Z" fill="#FFF3E1"/>
<path d="M145.664 294.625C145.664 294.625 145.951 294.912 146.238 295.343C147.529 296.635 150.974 299.938 155.853 303.096C157.145 303.958 158.58 304.676 160.015 305.537C165.469 308.409 172.357 310.706 180.107 310.706C184.843 310.706 189.436 310.275 193.597 309.558C196.037 309.127 198.19 308.696 200.343 308.122C210.389 305.537 216.99 302.091 216.99 302.091C216.99 302.091 216.99 301.948 217.134 301.948C217.421 301.517 217.564 300.943 217.851 300.368C218.425 298.789 219.143 296.923 219.86 294.912C220.004 294.338 220.291 293.907 220.435 293.333C221.009 291.61 221.726 289.744 222.3 287.877C222.444 287.303 222.587 286.728 222.874 286.298C223.448 284.575 224.022 282.708 224.596 280.842C224.74 280.267 224.883 279.693 225.17 279.262C225.745 277.396 226.319 275.529 226.893 273.806C227.036 273.232 227.18 272.658 227.467 272.227C228.041 270.36 228.615 268.494 229.189 266.771C229.332 266.197 229.476 265.622 229.763 265.191C230.48 263.038 230.911 261.171 231.342 259.735C231.485 259.161 231.772 258.587 231.772 258.156C232.059 257.295 232.203 256.864 232.203 256.864C232.203 256.864 234.499 254.854 237.369 251.695C237.943 251.121 238.517 250.403 239.091 249.685C240.67 247.818 242.392 245.521 243.684 243.224C244.114 242.649 244.401 241.932 244.688 241.357C245.693 239.491 246.554 237.481 246.985 235.47C247.128 234.896 247.128 234.322 247.272 233.891C247.415 232.312 247.415 230.732 246.985 229.153C246.985 229.009 246.985 229.009 246.985 228.866C246.841 228.435 246.698 228.004 246.554 227.43C246.123 226.138 245.549 224.558 244.832 222.835C244.688 222.405 244.401 221.974 244.258 221.543C243.684 220.107 242.966 218.528 242.249 216.949C242.105 216.518 241.818 216.087 241.675 215.657C240.957 214.221 240.239 212.641 239.522 211.062C239.378 210.631 239.091 210.2 238.948 209.626C238.23 208.19 237.513 206.611 236.652 205.032C236.365 204.601 236.221 204.17 235.934 203.596C235.216 202.016 234.355 200.581 233.638 199.001C233.351 198.571 233.207 197.996 232.92 197.565C232.059 195.986 231.198 194.407 230.48 192.971C230.193 192.54 229.906 192.109 229.763 191.535C228.902 189.956 228.041 188.376 227.18 186.941C226.893 186.51 226.606 186.079 226.319 185.505C225.314 183.782 224.309 182.202 223.448 180.767C223.161 180.192 222.874 179.762 222.587 179.331C221.583 177.895 220.865 176.89 220.147 176.316C219.573 175.741 218.856 175.167 218.282 174.736C217.708 174.306 217.134 173.875 216.56 173.444C213.689 171.434 211.106 169.998 208.379 168.993C207.088 168.419 205.94 167.988 204.648 167.701C201.921 166.839 199.194 166.265 196.611 165.834C193.31 165.116 189.723 165.116 182.69 167.27C181.686 167.557 180.538 167.988 179.246 168.419C177.38 169.137 175.228 169.855 172.931 170.716C171.783 171.147 170.779 171.721 169.774 172.295C169.2 172.583 168.626 173.013 168.052 173.444C166.33 174.736 164.751 176.172 163.316 177.895C162.885 178.326 162.598 178.757 162.311 179.187C161.163 180.623 160.159 182.059 159.154 183.782C158.867 184.213 158.58 184.643 158.437 185.074C157.575 186.51 156.858 188.089 156.14 189.812C155.997 190.243 155.71 190.674 155.566 191.104C154.992 192.684 154.418 194.263 153.844 195.843C153.701 196.273 153.557 196.704 153.414 197.135C152.983 198.714 152.552 200.293 152.122 202.016C151.978 202.447 151.835 203.021 151.835 203.452C151.404 205.032 151.117 206.755 150.83 208.334C150.687 208.765 150.687 209.339 150.543 209.77C150.256 211.349 150.113 212.928 149.969 214.508C149.969 214.651 149.969 214.651 149.969 214.795C149.969 215.226 149.826 215.657 149.826 216.231C149.682 217.667 149.539 219.39 149.395 221.256C149.395 221.687 149.252 222.261 149.252 222.692C149.108 224.271 148.965 225.994 148.965 227.861C148.965 228.292 148.965 228.866 148.821 229.297C148.678 230.876 148.678 232.599 148.534 234.465C148.534 234.896 148.534 235.47 148.391 235.901C148.247 237.624 148.247 239.347 148.104 241.07C148.104 241.501 148.104 242.075 147.96 242.506C147.817 244.229 147.817 245.952 147.673 247.675C147.673 248.105 147.673 248.68 147.673 249.111C147.529 250.834 147.53 252.556 147.386 254.279C147.386 254.71 147.386 255.284 147.386 255.715C147.242 257.438 147.242 259.161 147.099 260.884C147.099 261.315 147.099 261.889 146.955 262.32C146.812 264.043 146.812 265.766 146.812 267.489C146.812 267.919 146.812 268.494 146.668 268.925C146.525 270.647 146.525 272.37 146.525 274.093C146.525 274.524 146.525 275.098 146.525 275.529C146.381 277.396 146.381 278.975 146.381 280.698C146.381 281.129 146.381 281.703 146.381 282.134C146.381 284 146.238 285.723 146.238 287.303C146.238 287.877 146.238 288.308 146.238 288.739C146.094 291.179 146.094 292.902 146.094 293.907C145.664 294.338 145.664 294.625 145.664 294.625Z" fill="#FFDE55"/>
<g opacity="0.5">
<path opacity="0.5" d="M179.248 168.132C185.993 168.849 192.451 169.137 198.478 169.137C201.923 169.137 205.224 168.993 208.381 168.849C207.089 168.275 205.941 167.844 204.649 167.557C197.904 167.844 190.585 167.701 182.835 166.983C181.687 167.414 180.539 167.701 179.248 168.132Z" fill="#624970"/>
<path opacity="0.5" d="M167.91 173.3C179.104 175.167 189.293 175.885 198.478 175.885C205.797 175.885 212.399 175.454 218.283 174.736C217.709 174.306 217.135 173.875 216.561 173.444C203.501 174.88 187.715 175.023 169.776 172.152C169.058 172.439 168.484 172.87 167.91 173.3Z" fill="#624970"/>
<path opacity="0.5" d="M162.169 178.9C175.516 181.485 187.714 182.49 198.478 182.49C207.806 182.49 216.13 181.772 223.019 180.767C223.162 180.767 223.306 180.767 223.449 180.767C223.162 180.192 222.875 179.762 222.588 179.331C206.945 181.628 186.71 182.202 163.317 177.751C162.743 178.039 162.456 178.469 162.169 178.9Z" fill="#624970"/>
<path opacity="0.5" d="M158.293 184.787C173.219 188.089 186.709 189.238 198.477 189.238C207.805 189.238 216.129 188.52 223.018 187.515C224.453 187.228 225.888 187.084 227.18 186.797C226.893 186.366 226.606 185.935 226.319 185.361C209.384 188.233 186.278 189.381 159.154 183.495C158.724 183.925 158.58 184.356 158.293 184.787Z" fill="#624970"/>
<path opacity="0.5" d="M155.424 190.817C171.354 194.55 185.992 195.842 198.478 195.842C207.806 195.842 216.13 195.125 223.019 194.119C225.602 193.689 228.185 193.258 230.625 192.827C230.338 192.397 230.051 191.966 229.907 191.391C212.112 194.837 186.566 196.56 156.141 189.381C155.711 189.956 155.567 190.386 155.424 190.817Z" fill="#624970"/>
<path opacity="0.5" d="M153.272 196.991C170.063 201.155 185.419 202.591 198.479 202.591C207.807 202.591 216.131 201.873 223.02 200.868C226.895 200.293 230.482 199.575 233.783 198.858C233.496 198.427 233.353 197.852 233.066 197.422C214.839 201.298 187.141 203.739 153.846 195.555C153.559 196.129 153.415 196.56 153.272 196.991Z" fill="#624970"/>
<path opacity="0.5" d="M151.549 203.309C169.057 207.76 184.844 209.339 198.334 209.339C207.663 209.339 215.986 208.621 222.875 207.616C228.042 206.898 232.634 205.893 236.652 204.888C236.365 204.457 236.222 204.026 235.935 203.452C217.565 207.76 187.858 211.062 151.836 201.873C151.836 202.304 151.692 202.734 151.549 203.309Z" fill="#624970"/>
<path opacity="0.5" d="M150.401 209.626C168.341 214.364 184.701 215.943 198.479 215.943C207.807 215.943 216.131 215.226 223.019 214.221C229.334 213.359 235.075 212.067 239.811 210.775C239.667 210.344 239.38 209.913 239.237 209.339C220.867 214.077 189.581 218.241 150.832 208.19C150.545 208.621 150.401 209.195 150.401 209.626Z" fill="#624970"/>
<path opacity="0.5" d="M149.539 216.087C167.909 220.969 184.413 222.548 198.334 222.548C207.662 222.548 215.986 221.83 222.875 220.825C230.481 219.677 237.083 218.097 242.393 216.661C242.249 216.231 241.962 215.8 241.819 215.369C223.879 220.395 190.871 225.707 149.826 214.651C149.683 215.082 149.683 215.513 149.539 216.087Z" fill="#624970"/>
<path opacity="0.5" d="M149.108 222.548C167.622 227.574 184.413 229.153 198.477 229.153C207.806 229.153 216.129 228.435 223.018 227.43C231.916 226.138 239.379 224.271 245.119 222.548C244.976 222.117 244.689 221.687 244.545 221.256C227.18 226.568 192.737 232.886 149.252 221.112C149.108 221.687 149.108 222.117 149.108 222.548Z" fill="#624970"/>
<path opacity="0.5" d="M148.535 229.153C167.192 234.178 184.126 235.901 198.334 235.901C207.663 235.901 215.986 235.183 222.875 234.178C233.065 232.742 241.245 230.445 247.129 228.579C246.985 228.148 246.842 227.717 246.698 227.143C230.194 232.455 194.459 240.065 148.678 227.717C148.678 228.148 148.678 228.722 148.535 229.153Z" fill="#624970"/>
<path opacity="0.5" d="M148.248 235.758C167.048 240.926 184.127 242.649 198.478 242.649C207.806 242.649 216.13 241.931 223.019 240.926C233.208 239.347 241.532 237.193 247.416 235.327C247.56 234.752 247.56 234.178 247.703 233.747C231.486 239.06 195.177 247.244 148.392 234.465C148.248 234.752 148.248 235.183 148.248 235.758Z" fill="#624970"/>
<path opacity="0.5" d="M147.818 242.362C166.762 247.531 183.983 249.398 198.335 249.398C207.663 249.398 215.987 248.68 222.875 247.675C231.343 246.382 238.375 244.659 243.972 243.08C244.402 242.506 244.69 241.788 244.977 241.214C227.611 246.526 192.45 253.274 147.961 240.926C147.961 241.357 147.961 241.788 147.818 242.362Z" fill="#624970"/>
<path opacity="0.5" d="M147.531 248.967C166.618 254.279 183.84 256.002 198.335 256.002C207.663 256.002 215.987 255.284 222.876 254.279C228.329 253.418 233.209 252.413 237.514 251.408C238.088 250.833 238.662 250.115 239.236 249.398C220.436 254.279 187.858 258.73 147.531 247.531C147.531 247.962 147.531 248.392 147.531 248.967Z" fill="#624970"/>
<path opacity="0.5" d="M147.244 255.572C166.475 260.884 183.84 262.751 198.478 262.751C207.807 262.751 216.131 262.033 223.019 261.028C226.033 260.597 228.903 260.023 231.63 259.448C231.774 258.874 232.061 258.3 232.061 257.869C212.686 261.889 182.979 264.186 147.387 254.136C147.244 254.566 147.244 254.997 147.244 255.572Z" fill="#624970"/>
<path opacity="0.5" d="M146.956 262.033C166.331 267.489 183.696 269.212 198.478 269.212C207.806 269.212 216.13 268.494 223.019 267.489C225.315 267.201 227.468 266.771 229.477 266.34C229.62 265.766 229.764 265.191 230.051 264.761C210.533 268.494 181.687 270.217 147.243 260.597C146.956 261.171 146.956 261.602 146.956 262.033Z" fill="#624970"/>
<path opacity="0.5" d="M146.67 268.637C166.188 274.093 183.696 275.96 198.478 275.96C207.807 275.96 216.13 275.242 223.019 274.237C224.454 274.093 225.889 273.806 227.324 273.519C227.468 272.945 227.611 272.37 227.898 271.94C208.381 275.386 180.252 276.678 146.957 267.202C146.67 267.776 146.67 268.207 146.67 268.637Z" fill="#624970"/>
<path opacity="0.5" d="M146.383 275.242C165.901 280.842 183.553 282.565 198.335 282.565C207.663 282.565 215.987 281.847 222.876 280.842C223.593 280.698 224.167 280.698 224.885 280.554C225.028 279.98 225.172 279.406 225.459 278.975C206.085 282.134 178.673 282.995 146.526 273.806C146.526 274.38 146.383 274.811 146.383 275.242Z" fill="#624970"/>
<path opacity="0.5" d="M146.095 281.847C165.757 287.446 183.552 289.313 198.334 289.313C207.519 289.313 215.699 288.595 222.588 287.59C222.732 287.016 222.875 286.441 223.162 286.01C203.931 288.882 177.238 289.313 146.239 280.411C146.239 280.985 146.239 281.416 146.095 281.847Z" fill="#624970"/>
<path opacity="0.5" d="M145.952 288.451C165.757 294.051 183.553 295.917 198.478 295.917C206.658 295.917 213.978 295.343 220.149 294.482C220.292 293.907 220.579 293.477 220.723 292.902C201.635 295.487 175.803 295.487 145.952 286.872C145.952 287.59 145.952 288.021 145.952 288.451Z" fill="#624970"/>
<path opacity="0.5" d="M145.665 294.625C145.665 294.625 145.952 294.912 146.239 295.343C165.901 300.943 183.553 302.809 198.335 302.809C205.367 302.809 211.681 302.378 217.279 301.804C217.566 301.373 217.709 300.799 217.996 300.225C199.052 302.378 174.224 302.091 145.665 293.764C145.665 294.338 145.665 294.625 145.665 294.625Z" fill="#624970"/>
<path opacity="0.5" d="M155.998 302.953C157.29 303.814 158.725 304.532 160.16 305.394C172.359 307.978 183.696 309.127 193.886 309.414C196.325 308.983 198.478 308.552 200.631 307.978C187.428 308.122 172.502 306.829 155.998 302.953Z" fill="#624970"/>
</g>
<path d="M176.09 169.28C180.252 179.187 199.482 207.903 213.547 206.037C227.611 204.17 220.005 176.316 220.005 176.316C220.005 176.316 214.121 171.29 213.834 169.855V169.711C213.403 167.127 214.408 157.507 214.408 157.507C214.982 157.794 231.63 164.399 240.958 156.071C252.296 146.164 245.981 131.088 248.851 122.473C251.722 113.715 253.587 96.9161 244.689 88.0142C226.32 69.9231 199.77 79.543 193.311 93.3266C187.858 104.957 192.163 122.904 192.737 132.811C193.168 142.718 191.159 157.937 188.719 161.671C186.423 165.547 176.09 169.28 176.09 169.28Z" fill="#FFF3E1"/>
<path d="M236.94 92.8959C236.94 92.8959 234.787 105.531 218.857 111.274C204.936 116.156 204.362 117.448 202.927 120.75C201.492 124.196 201.062 128.073 199.196 127.211C197.33 126.35 198.478 120.75 197.904 120.032C197.33 119.315 196.182 131.806 193.025 133.816C189.868 135.826 186.71 101.941 191.59 92.178C196.613 82.4146 215.269 72.7948 232.635 79.1123C250 85.4298 254.162 101.224 252.009 113.715C250.861 120.176 238.662 103.664 236.94 92.8959Z" fill="#624970"/>
<path d="M243.522 129.785C242.338 129.669 241.517 128.167 241.688 126.431C241.858 124.695 242.956 123.382 244.139 123.498C245.322 123.614 246.143 125.116 245.973 126.852C245.802 128.588 244.705 129.902 243.522 129.785Z" fill="#624970"/>
<path d="M220.292 124.34C220.149 126.063 221.01 127.499 222.158 127.642C223.306 127.786 224.454 126.493 224.598 124.771C224.741 123.048 223.88 121.612 222.732 121.468C221.44 121.325 220.436 122.617 220.292 124.34Z" fill="#624970"/>
<path d="M236.365 121.325C237.37 121.325 237.944 129.078 237.657 129.796C237.083 131.519 234.643 130.083 234.499 129.509C234.356 128.934 235.647 121.325 236.365 121.325Z" fill="#FFE1BD"/>
<path d="M223.161 133.96C224.596 136.257 226.749 138.123 229.763 137.262C229.906 137.262 230.194 137.405 229.906 137.549C227.036 139.416 223.161 137.549 222.3 134.39C222.013 133.816 222.731 133.529 223.161 133.96Z" fill="#624970"/>
<path d="M218.57 128.504C218.857 128.36 219.144 128.791 219.001 128.934C218.57 129.365 218.14 130.226 217.422 130.226C217.135 130.226 216.848 129.939 216.992 129.652C217.135 129.221 217.996 128.934 218.57 128.504Z" fill="#FFE1BD"/>
<path d="M215.125 128.073C215.843 127.786 216.56 127.499 217.278 127.355C217.565 127.355 217.708 127.642 217.565 127.929C216.991 128.36 216.273 128.791 215.556 128.934C214.982 129.222 214.551 128.36 215.125 128.073Z" fill="#FFE1BD"/>
<path d="M215.27 125.919C215.844 125.919 216.418 126.063 216.992 126.206C217.279 126.35 217.279 126.637 216.992 126.781C216.418 126.924 215.7 126.924 215.126 126.781C214.839 126.637 214.839 125.919 215.27 125.919Z" fill="#FFE1BD"/>
<path d="M244.258 131.088C243.971 130.801 243.541 131.232 243.828 131.519C244.115 132.093 244.402 132.955 245.119 133.098C245.406 133.242 245.693 132.955 245.693 132.667C245.55 131.95 244.832 131.519 244.258 131.088Z" fill="#FFE1BD"/>
<path d="M247.704 131.375C247.13 130.944 246.412 130.514 245.695 130.226C245.408 130.083 245.121 130.514 245.408 130.657C245.838 131.231 246.556 131.662 247.13 132.093C247.704 132.38 248.135 131.662 247.704 131.375Z" fill="#FFE1BD"/>
<path d="M247.99 129.078C247.416 128.934 246.842 128.934 246.124 129.078C245.837 129.078 245.837 129.509 246.124 129.652C246.698 129.796 247.272 130.083 247.846 129.939C248.421 129.939 248.421 129.221 247.99 129.078Z" fill="#FFE1BD"/>
<path d="M242.68 117.735C243.541 116.874 245.407 117.161 246.412 117.879C247.416 118.597 247.99 119.745 248.277 120.894C248.277 121.181 247.99 121.325 247.847 121.181C247.129 120.607 246.412 120.176 245.551 119.745C244.69 119.458 243.828 119.602 242.967 119.315C242.25 119.027 242.25 118.166 242.68 117.735Z" fill="#624970"/>
<path d="M225.603 116.012C224.885 115.007 223.019 115.007 221.871 115.294C220.723 115.725 220.006 116.874 219.431 117.879C219.288 118.166 219.575 118.31 219.862 118.166C220.723 117.735 221.441 117.448 222.445 117.304C223.306 117.161 224.167 117.592 225.172 117.448C225.746 117.448 225.89 116.443 225.603 116.012Z" fill="#624970"/>
<path d="M197.904 120.032C197.904 120.032 191.59 112.853 185.419 115.151C179.104 117.592 179.965 132.38 188.719 133.816C194.316 134.821 196.9 131.088 196.9 131.088L197.904 120.032Z" fill="#FFF3E1"/>
<path d="M185.707 125.919C187.716 125.201 190.586 126.063 192.021 127.786C191.734 124.627 190.442 122.043 188.29 119.315C188.003 119.027 188.29 118.597 188.72 118.74C192.308 120.75 194.174 125.776 193.026 129.796C193.026 130.083 192.595 130.227 192.452 129.939C191.591 129.078 191.16 128.073 190.012 127.355C188.72 126.637 187.429 126.637 185.994 126.493C185.276 126.781 185.276 126.063 185.707 125.919Z" fill="#FFE1BD"/>
<path d="M291.907 271.652C298.509 272.945 308.555 265.909 310.707 268.494C313.004 271.078 307.55 277.396 297.504 279.549L291.907 271.652Z" fill="#FFF3E1"/>
<path d="M202.354 266.627C200.201 266.484 192.882 232.886 184.414 210.344C175.947 187.802 141.36 197.709 148.249 227.43C155.138 257.151 175.23 298.215 179.104 299.22C190.873 302.235 269.231 295.487 274.541 292.902C279.851 290.174 278.847 274.668 272.532 272.37C266.217 269.929 214.983 267.201 202.354 266.627Z" fill="#FFF3E1"/>
<path d="M267.653 294.338C282.435 295.63 289.897 291.466 289.897 291.466C289.897 291.466 296.929 292.041 298.365 293.477C306.258 300.799 313.577 303.814 314.869 302.666C316.16 301.517 312.142 296.922 312.142 296.922C316.017 299.076 322.044 300.943 322.475 299.076C322.905 297.353 316.447 292.041 316.017 291.61C316.591 291.754 323.336 294.194 323.623 292.184C323.623 291.466 321.04 288.882 317.308 285.867C319.748 285.867 320.753 284.862 319.174 283.713C317.165 282.277 300.087 272.37 296.212 271.652C295.638 271.365 295.207 271.222 294.777 271.222C288.606 270.073 275.833 271.652 270.523 271.652C270.092 271.509 257.607 293.477 267.653 294.338Z" fill="#FFF3E1"/>
<path d="M172.504 170.716C166.333 172.008 145.38 183.782 139.783 195.412C134.185 207.042 147.102 260.023 148.824 261.171C150.546 262.32 184.989 269.642 200.632 246.813C202.642 243.654 172.504 170.716 172.504 170.716Z" fill="#FFDE55"/>
<path d="M260.62 300.943H456.373L459.1 292.615L260.62 295.487V300.943Z" fill="#BCB1FF"/>
<path d="M330.942 300.943H456.373L485.076 212.498H359.645L330.942 300.943Z" fill="#BCB1FF"/>
<path opacity="0.6" d="M456.373 300.943L459.1 292.615L456.373 300.943Z" fill="url(#paint0_linear)"/>
<path d="M405.77 263.653C400.897 260.838 399.484 254.158 402.615 248.733C405.745 243.308 412.234 241.192 417.108 244.007C421.981 246.822 423.394 253.502 420.263 258.927C417.132 264.352 410.643 266.468 405.77 263.653Z" fill="#907DFF"/>
<path d="M50.2303 300.943H525.979V312.286H50.2303V300.943Z" fill="#624970"/>
<path d="M485.221 312.429L511.054 576.472H518.086L500.864 312.429H485.221Z" fill="#624970"/>
<path d="M458.384 312.429L481.347 548.331H487.805L472.305 312.429H458.384Z" fill="#624970"/>
<path d="M117.824 312.429L94.7185 548.331H88.4039L103.76 312.429H117.824Z" fill="#624970"/>
<path d="M90.9883 312.429L65.1558 576.472H58.1237L75.3453 312.429H90.9883Z" fill="#624970"/>
<path d="M273.537 609.208C274.112 609.783 274.686 610.5 275.116 611.362L275.834 611.075C275.977 610.644 276.264 610.357 276.838 610.357C277.269 610.357 277.699 610.788 277.556 611.362C277.412 611.936 277.125 612.223 276.551 612.08C276.408 612.08 276.408 612.08 276.264 611.936L275.547 612.223C275.977 613.085 276.121 613.803 276.264 614.664L275.26 614.808C274.973 612.941 274.111 611.218 272.676 609.783L273.537 609.208Z" fill="#F9FBFC"/>
<path d="M265.787 605.906C266.075 605.906 266.218 605.906 266.505 605.906L266.649 605.044C266.362 604.901 266.218 604.47 266.218 604.183C266.218 603.609 266.792 603.178 267.366 603.322C267.94 603.322 268.371 603.896 268.227 604.47C268.227 604.901 267.94 605.188 267.653 605.332L267.51 606.193C268.514 606.337 269.519 606.624 270.523 607.055L270.093 608.06C268.801 607.485 267.366 607.055 265.787 607.055C265.07 607.055 264.352 607.198 263.635 607.342L263.348 606.337C264.209 606.05 264.926 605.906 265.787 605.906Z" fill="#F9FBFC"/>
<path d="M256.172 609.639C255.742 609.639 255.311 609.208 255.455 608.634C255.455 608.203 255.885 607.772 256.459 607.916C256.89 607.916 257.177 608.347 257.177 608.778L257.751 609.352C258.325 608.778 259.042 608.203 259.76 607.772L260.334 608.634C258.755 609.639 257.464 611.075 256.603 612.798L255.598 612.367C256.029 611.506 256.459 610.788 256.89 610.213L256.316 609.639C256.459 609.639 256.316 609.639 256.172 609.639Z" fill="#F9FBFC"/>
<path d="M266.506 620.551C267.08 620.551 267.654 620.551 268.228 620.551C269.52 620.551 270.668 620.407 271.816 620.264C272.39 620.12 272.964 619.977 273.682 619.833C272.247 622.561 269.233 624.284 265.932 624.284C261.77 624.284 258.326 621.556 257.465 617.823C258.469 618.397 259.617 618.972 261.052 619.402C262.488 620.12 264.497 620.551 266.506 620.551Z" fill="#F9FBFC"/>
<path d="M265.789 608.06C270.668 608.06 274.543 611.936 274.543 616.531C274.543 617.105 274.543 617.679 274.399 618.397C273.395 619.115 270.525 619.69 266.793 619.402C262.631 619.115 259.187 617.967 257.178 616.244C257.178 615.956 257.178 615.669 257.178 615.382C257.608 611.362 261.34 608.06 265.789 608.06ZM268.802 617.536C270.238 617.536 271.386 616.387 271.386 614.951C271.386 613.516 270.238 612.367 268.802 612.367C267.367 612.367 266.219 613.516 266.219 614.951C266.219 616.244 267.367 617.536 268.802 617.536ZM262.057 616.244C263.205 616.244 264.066 615.382 264.066 614.233C264.066 613.085 263.205 612.223 262.057 612.223C260.909 612.223 260.048 613.085 260.048 614.233C260.048 615.382 260.909 616.244 262.057 616.244Z" fill="#F9FBFC"/>
<path d="M242.681 610.788C243.111 610.644 243.829 610.357 244.69 610.501C245.551 610.644 245.838 610.931 245.838 611.936V613.229H242.681V615.669H245.838V623.566H248.565V615.669H250.574V613.085H248.709V611.793C248.709 609.352 247.417 607.772 244.977 607.772C244.116 607.772 243.255 607.916 242.681 608.203V610.788Z" fill="#F9FBFC"/>
<path d="M235.936 615.526C236.223 615.526 236.51 615.526 236.654 615.526C237.945 615.526 238.806 616.244 238.806 617.823V623.423H241.533V613.085H238.806V614.234C238.089 613.228 237.228 612.798 235.936 612.798C235.362 612.798 234.788 612.941 234.358 613.228L235.936 615.526Z" fill="#F9FBFC"/>
<path d="M225.03 618.254C225.03 618.541 225.03 618.972 225.03 619.259H232.35C232.062 620.695 231.058 621.412 229.766 621.412C228.905 621.412 227.901 620.982 227.183 620.407L225.604 622.13C226.752 623.135 228.331 623.71 230.053 623.71C233.211 623.71 235.363 621.556 235.363 618.254C235.363 614.951 233.211 612.798 230.197 612.798C227.04 612.941 225.03 615.095 225.03 618.254ZM232.35 617.392H227.757C228.044 616.1 228.762 615.382 230.053 615.382C231.345 615.239 232.062 616.1 232.35 617.392Z" fill="#F9FBFC"/>
<path d="M213.979 618.254C213.979 618.541 213.979 618.972 213.979 619.259H221.299C221.012 620.695 220.007 621.412 218.715 621.412C217.854 621.412 216.85 620.982 216.132 620.407L214.554 622.13C215.702 623.135 217.28 623.71 219.002 623.71C222.16 623.71 224.312 621.556 224.312 618.254C224.312 614.951 222.16 612.798 219.146 612.798C215.989 612.941 213.979 615.095 213.979 618.254ZM221.299 617.392H216.706C216.993 616.1 217.711 615.382 219.002 615.382C220.294 615.239 221.155 616.1 221.299 617.392Z" fill="#F9FBFC"/>
<path d="M202.068 618.254C202.068 621.413 204.221 623.71 207.091 623.71C208.527 623.71 209.388 623.135 210.105 622.418V627.73H212.832V613.085H210.105V614.234C209.388 613.372 208.383 612.798 207.091 612.798C204.221 612.941 202.068 615.239 202.068 618.254ZM210.249 618.254C210.249 619.833 209.244 621.125 207.666 621.125C206.087 621.125 204.939 619.833 204.939 618.254C204.939 616.674 205.943 615.382 207.666 615.382C209.101 615.526 210.249 616.674 210.249 618.254Z" fill="#F9FBFC"/>
<path d="M197.618 609.783C197.618 610.788 198.336 611.505 199.34 611.505C200.345 611.505 201.062 610.788 201.062 609.783C201.062 608.777 200.345 608.06 199.34 608.06C198.336 608.06 197.618 608.777 197.618 609.783ZM197.905 623.423H200.632V613.085H197.905V623.423Z" fill="#F9FBFC"/>
<path d="M193.312 616.818L189.437 613.085H185.993L191.016 617.967L185.993 623.423H189.437L193.312 619.259V623.423H196.039V608.06H193.312V616.818Z" fill="#F9FBFC"/>
<path d="M382.177 623.423V621.843C382.895 622.848 384.186 623.566 385.621 623.566C388.205 623.566 390.07 621.556 390.07 618.254C390.07 614.951 388.205 612.941 385.621 612.941C384.186 612.941 383.038 613.659 382.177 614.664V609.208H380.598V623.279H382.177V623.423ZM382.177 620.551V615.957C382.751 615.095 383.899 614.377 385.191 614.377C387.2 614.377 388.492 616.1 388.492 618.254C388.492 620.551 387.344 622.13 385.191 622.13C384.043 622.274 382.751 621.556 382.177 620.551Z" fill="#F9FBFC"/>
<path d="M378.59 618.254C378.59 615.239 376.437 612.941 373.567 612.941C370.553 612.941 368.687 615.382 368.687 618.397V618.828H376.868C376.724 620.695 375.433 622.274 373.28 622.274C372.132 622.274 370.984 621.843 370.123 620.982L369.405 621.987C370.41 622.992 371.845 623.566 373.423 623.566C376.437 623.566 378.59 621.413 378.59 618.254ZM373.567 614.234C375.72 614.234 376.868 616.1 376.868 617.68H370.266C370.266 616.1 371.271 614.234 373.567 614.234Z" fill="#F9FBFC"/>
<path d="M367.539 621.987L366.678 620.838C365.96 621.556 364.669 622.274 363.377 622.274C361.799 622.274 360.937 621.556 360.937 620.551C360.937 618.11 367.252 619.546 367.252 615.813C367.252 614.234 365.817 612.941 363.521 612.941C361.799 612.941 360.507 613.659 359.789 614.377L360.507 615.526C361.081 614.808 362.229 614.234 363.521 614.234C364.956 614.234 365.817 614.952 365.817 615.813C365.817 618.11 359.502 616.531 359.502 620.551C359.502 622.274 360.937 623.566 363.521 623.566C365.099 623.566 366.534 623.136 367.539 621.987Z" fill="#F9FBFC"/>
<path d="M357.779 610.644C357.779 610.07 357.349 609.639 356.775 609.639C356.201 609.639 355.77 610.07 355.77 610.644C355.77 611.219 356.201 611.649 356.775 611.649C357.205 611.793 357.779 611.219 357.779 610.644ZM357.492 623.423V613.229H355.914V623.423H357.492Z" fill="#F9FBFC"/>
<path d="M353.331 626.007L352.47 624.859C351.609 625.864 350.604 626.294 349.169 626.294C347.447 626.294 345.868 625.433 345.868 623.279V621.843C346.586 622.848 347.878 623.71 349.313 623.71C351.896 623.71 353.762 621.7 353.762 618.397C353.762 615.095 351.896 613.085 349.313 613.085C347.878 613.085 346.73 613.803 345.868 614.808V613.229H344.29V623.136C344.29 626.438 346.586 627.587 349.169 627.587C350.891 627.443 352.04 627.156 353.331 626.007ZM345.868 620.408V615.957C346.443 615.095 347.591 614.377 348.882 614.377C350.891 614.377 352.183 615.957 352.183 618.254C352.183 620.551 351.035 622.131 348.882 622.131C347.734 622.131 346.443 621.269 345.868 620.408Z" fill="#F9FBFC"/>
<path d="M334.818 623.423V616.818C334.818 615.095 335.679 614.521 337.115 614.521C338.406 614.521 339.554 615.239 340.128 616.1V623.566H341.707V613.372H340.128V614.808C339.411 613.946 337.976 613.085 336.541 613.085C334.388 613.085 333.24 614.09 333.24 616.387V623.566H334.818V623.423Z" fill="#F9FBFC"/>
<path d="M331.23 618.254C331.23 615.239 329.078 612.941 326.207 612.941C323.194 612.941 321.328 615.382 321.328 618.397V618.828H329.508C329.365 620.695 328.073 622.274 325.92 622.274C324.772 622.274 323.624 621.843 322.763 620.982L322.046 621.987C323.05 622.992 324.485 623.566 326.064 623.566C329.078 623.566 331.23 621.413 331.23 618.254ZM326.207 614.234C328.36 614.234 329.508 616.1 329.508 617.68H322.907C322.907 616.1 323.911 614.234 326.207 614.234Z" fill="#F9FBFC"/>
<path d="M311.999 623.423V621.843C312.717 622.848 314.009 623.566 315.444 623.566C318.027 623.566 319.893 621.556 319.893 618.254C319.893 614.951 318.027 612.941 315.444 612.941C314.009 612.941 312.86 613.659 311.999 614.664V609.208H310.421V623.279H311.999V623.423ZM311.999 620.551V615.957C312.573 615.095 313.721 614.377 315.013 614.377C317.022 614.377 318.314 616.1 318.314 618.254C318.314 620.551 317.166 622.13 315.013 622.13C313.721 622.274 312.573 621.556 311.999 620.551Z" fill="#F9FBFC"/>
<path d="M302.957 623.423V609.352H301.378V614.808C300.517 613.659 299.369 613.085 297.934 613.085C295.351 613.085 293.485 615.239 293.485 618.397C293.485 621.7 295.351 623.71 297.934 623.71C299.369 623.71 300.661 622.992 301.378 621.987V623.566H302.957V623.423ZM298.221 622.274C296.212 622.274 294.92 620.551 294.92 618.397C294.92 616.1 296.068 614.521 298.221 614.521C299.513 614.521 300.661 615.239 301.235 616.1V620.695C300.804 621.556 299.513 622.274 298.221 622.274Z" fill="#F9FBFC"/>
<path d="M291.619 625.864C291.332 626.007 291.045 626.007 290.758 626.007C290.041 626.007 289.61 625.72 289.18 625.002L288.462 623.423L292.768 613.229H291.045L287.601 621.556L284.3 613.229H282.578L287.601 625.433C288.175 626.869 289.18 627.443 290.615 627.443C290.902 627.443 291.476 627.443 291.763 627.299L291.619 625.864Z" fill="#F9FBFC"/>
</g>
<defs>
<linearGradient id="paint0_linear" x1="459.369" y1="298.119" x2="456.957" y2="296.095" gradientUnits="userSpaceOnUse">
<stop stop-color="#323547"/>
<stop offset="1" stop-color="#313445" stop-opacity="0"/>
</linearGradient>
<clipPath id="clip0">
<rect width="562" height="653" fill="white" transform="matrix(-1 0 0 1 562 0)"/>
</clipPath>
</defs>
</svg>
